# xmcd
#
# Track frame offsets:
# 150
# 11862
# 23951
# 37984
# 47484
# 63062
# 73473
# 82908
# 99350
# 110491
# 125259
# 133496
# 144402
# 153837
#
# Disc length: 2160 seconds
#
#
# Revision: 0
# Processed by: cddbd v1.5.1PL0 Copyright (c) Steve Scherf et al.
# Submitted via: FreeRIP 2.941 
#
DISCID=b8086e0e
DTITLE=Floyd Tillman - The Influence
DYEAR=1900
DGENRE=Country
TTITLE0=Slippin' Around (Dolly Parton)
TTITLE1=It Makes No Difference Now (Mel Tillis)
TTITLE2=I Gotta Have My Baby Back (Ray Price)
TTITLE3=Drivin' Nails In My Coffin (George Jones)
TTITLE4=I Love You So Much It Hurts Me (Connie Smith)
TTITLE5=Each Night At Nine (Willie Nelson)
TTITLE6=I'll Take What I Can Get (Hank Thompson)
TTITLE7=This Cold War With You (Merle Haggard)
TTITLE8=I'll Keep On Lovin' You (Darrell McCall)
TTITLE9=Let's Make Memories Tonight (Leona Williams)
TTITLE10=They Took The Stars Out Of Heaven (Johnny Bush)
TTITLE11=I'm Still In Love With Every Girl (Justin Trevino)
TTITLE12=Just As Long As I Have You (Frankie Miller)
TTITLE13=It Just Tears Me Up (Lawton Williams)
EXTD=
EXTT0=
EXTT1=
EXTT2=
EXTT3=
EXTT4=
EXTT5=
EXTT6=
EXTT7=
EXTT8=
EXTT9=
EXTT10=
EXTT11=
EXTT12=
EXTT13=
PLAYORDER=
